<?xml version="1.0" standalone="no"?><!DOCTYPE svg PUBLIC "-//W3C//DTD SVG 1.1//EN" "http://www.w3.org/Graphics/SVG/1.1/DTD/svg11.dtd"><svg t="1510301531595" class="icon" style="" viewBox="0 0 1024 1024" version="1.1" xmlns="http://www.w3.org/2000/svg" p-id="27995" xmlns:xlink="http://www.w3.org/1999/xlink" width="200" height="200"><defs><style type="text/css"></style></defs><path d="M554.908764 904.539234l-5.321192-21.122063c0 0-60.370972-193.962573-136.422066-346.678744 53.652967-147.028635 127.184681-342.6725 148.954497-371.929848 35.488259-47.650253 135.863341-124.735909 224.304625 136.565329 110.666472 326.780555 170.163541 603.166349 170.163541 603.166349L554.908764 904.540258 554.908764 904.539234M717.792505 261.263375c-36.050054-86.640266-68.108191-111.154589-102.510722-91.416036-34.369785 19.808138-86.727247 221.296105-86.727247 221.296105s31.147394-25.442462 58.623165-27.508517c27.509541-2.031263 65.342194 48.03604 65.342194 48.03604s21.699208-61.931514 47.38931-59.551304c25.758664 2.329045 68.737524 33.56342 68.737524 33.56342S753.840512 347.886245 717.792505 261.263375L717.792505 261.263375M502.866481 904.539234l-442.243263-1.802042c0 0 94.601588-233.756905 123.19481-313.044716 28.594245-79.273485 83.613326-202.907293 158.439522-88.600921 74.79345 114.289999 143.04081 333.485257 143.04081 333.485257L502.866481 904.539234 502.866481 904.539234M323.708078 572.715827c-19.528775-46.231951-36.712133-59.288315-55.087643-48.611138-18.374486 10.656711-45.848211 118.608352-45.848211 118.608352s16.587793-13.649881 31.323403-14.856359c14.663978-1.155313 35.06768 25.495674 35.06768 25.495674s11.44568-33.143864 25.164123-31.954783c13.790074 1.172709 36.888142 17.71036 36.888142 17.71036S343.203084 618.984616 323.708078 572.715827L323.708078 572.715827M323.708078 572.715827" p-id="27996" fill="#006934"></path></svg>