<?xml version="1.0" standalone="no"?><!DOCTYPE svg PUBLIC "-//W3C//DTD SVG 1.1//EN" "http://www.w3.org/Graphics/SVG/1.1/DTD/svg11.dtd"><svg t="1510286176698" class="icon" style="" viewBox="0 0 1040 1024" version="1.1" xmlns="http://www.w3.org/2000/svg" p-id="3910" xmlns:xlink="http://www.w3.org/1999/xlink" width="203.125" height="200"><defs><style type="text/css"></style></defs><path d="M549.631756 1023.950799a404.617017 404.617017 0 0 1-410.011911-431.591486 27.190264 27.190264 0 0 1 28.269243-25.679693 26.974468 26.974468 0 0 1 25.679693 27.406059 351.315469 351.315469 0 0 0 374.621409 375.484592 444.970821 444.970821 0 0 0 415.6226-415.6226A350.883877 350.883877 0 0 0 622.786513 178.894671a26.974468 26.974468 0 1 1 0-53.948936h6.258077a404.617017 404.617017 0 0 1 410.011911 431.591485 487.482583 487.482583 0 0 1-146.52531 321.751452 487.482583 487.482583 0 0 1-321.967248 145.230535z" fill="#009688" p-id="3911"></path><path d="M488.997735 122.169156l78.126404 78.126404-352.636953 352.636952-78.126404-78.126404 352.636953-352.636952Z" fill="#009688" p-id="3912"></path><path d="M21.579574 380.016303a21.579574 21.579574 0 0 1-21.579574-21.579575A358.86832 358.86832 0 0 1 358.652524 0a21.579574 21.579574 0 0 1 0 43.159149A315.709171 315.709171 0 0 0 43.159149 358.436728a21.579574 21.579574 0 0 1-21.579575 21.579575z" fill="#009688" p-id="3913"></path><path d="M121.061412 380.016303a21.579574 21.579574 0 0 1-21.579575-21.579575 258.954891 258.954891 0 0 1 258.954891-258.954891 21.579574 21.579574 0 0 1 0 43.159149 215.795743 215.795743 0 0 0-215.795742 215.795742 21.579574 21.579574 0 0 1-21.579574 21.579575z" fill="#009688" p-id="3914"></path></svg>