<?xml version="1.0" standalone="no"?><!DOCTYPE svg PUBLIC "-//W3C//DTD SVG 1.1//EN" "http://www.w3.org/Graphics/SVG/1.1/DTD/svg11.dtd"><svg t="1510554188158" class="icon" style="" viewBox="0 0 1024 1024" version="1.1" xmlns="http://www.w3.org/2000/svg" p-id="19006" xmlns:xlink="http://www.w3.org/1999/xlink" width="200" height="200"><defs><style type="text/css"></style></defs><path d="M901.424 547.003c-29.175-29.155-72.121-31.782-101.296-2.621l-83.388 83.344c-21.708 21.673-47.865 21.717-63.136 3.702-10.12-11.936-6.124-48.753-3.292-72.112l41.824-343.757c3.736-30.708-18.144-60.382-48.871-64.112-30.718-3.736-58.653 19.881-62.39 50.585l-46.131 270.004c-2.412 6.715-7.584 7.876-8.165-1.163l-15.7-350.94c0-30.938-25.089-56.011-56.037-56.011-30.953 0-56.04 25.073-56.04 56.01l-1.104 353.564c0.288 4.082-3.208 5.25-3.844 0.59l-49.852-275.985c-5.504-30.445-34.656-52.417-65.11-46.917-30.458 5.499-50.687 36.383-45.188 66.818l44.393 322.967c0.044 5.749-1.88 9.03-4.614 1.665L207.25 365.566c-10.358-29.15-42.4-46.136-71.565-35.783-29.16 10.355-44.407 44.129-34.048 73.276L217.74 782.373a232.956 232.956 0 0 0 1.905 6.236l0.244 0.782c0.019 0.063 0.05 0.117 0.068 0.176 32.154 98.967 125.154 170.513 234.884 170.513 70.247 0 143.209-24.76 198.752-67.356l0.005-0.005c59.99-36.11 252.188-242.737 252.188-242.737 29.175-29.163 24.818-73.813-4.363-102.979z m0 0" fill="#59c2ff" p-id="19007"></path></svg>