<?xml version="1.0" standalone="no"?><!DOCTYPE svg PUBLIC "-//W3C//DTD SVG 1.1//EN" "http://www.w3.org/Graphics/SVG/1.1/DTD/svg11.dtd"><svg t="1510301036127" class="icon" style="" viewBox="0 0 1024 1024" version="1.1" xmlns="http://www.w3.org/2000/svg" p-id="15737" xmlns:xlink="http://www.w3.org/1999/xlink" width="200" height="200"><defs><style type="text/css"></style></defs><path d="M900.7 546c-29-29-71.7-31.6-100.7-2.6l-82.9 82.9c-21.6 21.5-47.6 21.6-62.8 3.7-10.1-11.9-6.1-48.5-3.3-71.7l41.6-341.8c3.7-30.5-18-60-48.6-63.7-30.5-3.7-58.3 19.8-62 50.3l-45.9 268.4c-2.4 6.7-7.5 7.8-8.1-1.2l-15.6-348.9c0-30.8-24.9-55.7-55.7-55.7-30.8 0-55.7 24.9-55.7 55.7l-1.1 351.5c0.3 4.1-3.2 5.2-3.8 0.6l-49.6-274.4c-5.5-30.3-34.5-52.1-64.7-46.6-30.3 5.5-50.4 36.2-44.9 66.4L281 540c0 5.7-1.9 9-4.6 1.7l-65.9-176c-10.3-29-42.2-45.9-71.2-35.6-29 10.3-44.2 43.9-33.9 72.9L221 780c0.6 2.1 1.2 4.1 1.9 6.2l0.2 0.8c0 0.1 0 0.1 0.1 0.2 32 98.4 124.4 169.5 233.5 169.5 69.8 0 142.4-24.6 197.6-67C713.9 853.8 905 648.4 905 648.4c29.1-29.1 24.8-73.4-4.3-102.4m0 0z" p-id="15738" fill="#7e318e"></path></svg>