<?xml version="1.0" standalone="no"?><!DOCTYPE svg PUBLIC "-//W3C//DTD SVG 1.1//EN" "http://www.w3.org/Graphics/SVG/1.1/DTD/svg11.dtd"><svg t="1510301002822" class="icon" style="" viewBox="0 0 1024 1024" version="1.1" xmlns="http://www.w3.org/2000/svg" p-id="15021" xmlns:xlink="http://www.w3.org/1999/xlink" width="200" height="200"><defs><style type="text/css"></style></defs><path d="M959.283558 309.060985c-0.837064-135.301546-110.026906-245.112534-244.083088-245.112534-85.116563 0-160.240541 44.293809-203.891713 111.297852C467.656561 108.24226 392.523373 63.948451 307.40681 63.948451c-134.057205 0-243.236813 109.810988-244.081041 245.112534-0.836041 13.733792-1.670036 74.219375 38.33612 163.330926l391.622352 0.076748 43.875277-163.77811-0.437975-2.478448 1.147126-0.155543 0.856507-3.197832 7.564279 2.022053 20.016893-2.781346 55.280024 311.155692 66.470901-230.754524 10.965749 2.936889 26.570145-3.695159 17.810644 103.393835 34.251082-102.635565 10.965749 2.936889 26.571169-3.695159 24.188912 140.435473 50.030463 0.067538-5.457292 19.916609C961.374172 415.425478 960.32426 326.129732 959.283558 309.060985zM814.412053 553.104163l-21.193695-123.072013-39.119973 117.209492 0.299829 1.749854-0.923022 0.125867-1.077541 3.227508-7.565303-2.022053-20.017916 2.780323-20.513196-119.113865-70.855768 245.997694 1.488911 8.380878-29.585829 4.112668-55.862285-314.40162-36.020378 134.446062-28.844955-7.729032 0.671289-2.518357-369.210923-0.077771c53.249785 102.707197 159.303192 236.542344 369.677551 378.684692 7.281847 5.861498 16.46909 9.274224 26.103518 9.274224 10.869558 0 20.969591-4.336772 28.409027-11.637038C715.97102 759.24715 818.310849 645.921105 877.797685 552.050158l-55.285141-0.072655L814.412053 553.104163zM101.260753 472.392934l11.744485 29.806863 3.076058 0c-5.317099-10.254551-10.104125-20.195971-14.419408-29.807886L101.260753 472.39191zM881.242134 552.055275l2.709715-9.891278c-1.997494 3.269463-4.051269 6.567579-6.155187 9.886161L881.242134 552.055275z" p-id="15022" fill="#ff1432"></path></svg>