<?xml version="1.0" standalone="no"?><!DOCTYPE svg PUBLIC "-//W3C//DTD SVG 1.1//EN" "http://www.w3.org/Graphics/SVG/1.1/DTD/svg11.dtd"><svg t="1510554135331" class="icon" style="" viewBox="0 0 1024 1024" version="1.1" xmlns="http://www.w3.org/2000/svg" p-id="18337" xmlns:xlink="http://www.w3.org/1999/xlink" width="200" height="200"><defs><style type="text/css"></style></defs><path d="M512 512m-512 0a512 512 0 1 0 1024 0 512 512 0 1 0-1024 0Z" fill="#FF003F" p-id="18338"></path><path d="M832 620.8c0-12.8-10.666667-21.333333-23.466667-21.333333h-200.533333c-8.533333 0-17.066667-4.266667-21.333333-12.8l-44.8-83.2-61.866667 170.666666c-2.133333 6.4-8.533333 12.8-17.066667 14.933334h-4.266666c-6.4 0-12.8-2.133333-17.066667-6.4l-91.733333-91.733334c-8.533333-8.533333-8.533333-21.333333 0-29.866666 8.533333-8.533333 23.466667-8.533333 32 0l66.133333 64 68.266667-185.6c2.133333-8.533333 10.666667-12.8 19.2-14.933334 8.533333 0 17.066667 4.266667 21.333333 12.8l61.866667 115.2h134.4c19.2-25.6 29.866667-59.733333 29.866666-93.866666 0-89.6-70.4-162.133333-157.866666-162.133334-61.866667 0-115.2 36.266667-140.8 89.6-25.6-53.333333-78.933333-89.6-140.8-89.6-87.466667 0-157.866667 72.533333-157.866667 162.133334 0 44.8 19.2 87.466667 49.066667 117.333333l234.666666 228.266667c8.533333 8.533333 21.333333 8.533333 29.866667 0l168.533333-164.266667h136.533334c17.066667 2.133333 27.733333-6.4 27.733333-19.2z" fill="#FFFFFF" p-id="18339"></path></svg>