<?xml version="1.0" standalone="no"?><!DOCTYPE svg PUBLIC "-//W3C//DTD SVG 1.1//EN" "http://www.w3.org/Graphics/SVG/1.1/DTD/svg11.dtd"><svg t="1510301349531" class="icon" style="" viewBox="0 0 1024 1024" version="1.1" xmlns="http://www.w3.org/2000/svg" p-id="25125" xmlns:xlink="http://www.w3.org/1999/xlink" width="200" height="200"><defs><style type="text/css"></style></defs><path d="M630.457344 507.938816C460.946432 293.911552 445.179904 155.08992 443.844608 144.502784l-0.171008 0c-1.44896 10.587136-17.215488 149.408768-186.783744 363.436032C59.245568 757.94944 173.493248 1009.625088 442.22464 1024l2.955264 0C713.900032 1009.625088 828.387328 757.94944 630.457344 507.938816zM422.841344 876.15488c-1.790976 10.028032-10.085376 17.272832-19.280896 17.48992-1.608704 0-2.955264-0.217088-4.563968-0.776192-101.549056-22.725632-122.838016-119.209984-119.609344-167.228416 0.787456-12.036096 10.370048-20.832256 21.39136-20.056064 11.14624 0.889856 19.49696 11.363328 18.664448 23.399424-0.273408 4.44928-4.404224 101.047296 87.904256 121.662464C418.107392 852.86912 425.18016 864.4608 422.841344 876.15488z" p-id="25126" fill="#0ab4ff"></path><path d="M821.256192 168.574976C744.15616 71.088128 737.026048 4.905984 736.238592 0l0 0c-0.661504 4.905984-7.791616 71.088128-85.06368 168.574976-90.128384 113.744896-38.207488 225.938432 84.401152 232.40704l1.44896 0C859.521024 394.513408 911.3856 282.319872 821.256192 168.574976zM730.05568 340.036608c-0.832512 4.677632-5.281792 8.24832-9.572352 8.24832-0.787456 0-1.506304 0-2.292736-0.342016-49.353728-12.024832-58.651648-59.154432-56.815616-82.66752 0.559104-5.79584 5.179392-10.028032 10.804224-9.583616 5.521408 0.559104 9.309184 5.681152 8.864768 11.705344-0.228352 2.008064-3.239936 49.125376 41.607168 59.940864C727.887872 328.787968 731.230208 334.46912 730.05568 340.036608z" p-id="25127" fill="#0ab4ff"></path></svg>