<?xml version="1.0" standalone="no"?><!DOCTYPE svg PUBLIC "-//W3C//DTD SVG 1.1//EN" "http://www.w3.org/Graphics/SVG/1.1/DTD/svg11.dtd"><svg t="1510545474553" class="icon" style="" viewBox="0 0 1024 1024" version="1.1" xmlns="http://www.w3.org/2000/svg" p-id="9918" xmlns:xlink="http://www.w3.org/1999/xlink" width="200" height="200"><defs><style type="text/css"></style></defs><path d="M512.447945 80.739689c-238.531949 0-431.898512 193.366564-431.898512 431.897308 0 238.527132 193.366564 431.8949 431.898512 431.8949 238.533153 0 431.899717-193.366564 431.899717-431.8949 0-238.530745-193.366564-431.897308-431.899717-431.897308zM367.724362 253.532088c11.792274-11.79107 28.362629-18.657153 45.038949-18.657153 16.675116 0 33.246675 6.866083 45.038949 18.657153 11.79107 11.79107 18.657153 28.365037 18.657153 45.037745 0 16.677524-6.864878 33.246675-18.655949 45.040153-11.792274 11.79107-28.365037 18.654744-45.038949 18.654744-16.677524 0-33.246675-6.864878-45.038949-18.654744-11.79107-11.79107-18.655948-28.362629-18.655949-45.040153-0.002408-16.672708 6.86247-33.246675 18.654745-45.037745z m166.000973 537.389574l-4.497512 2.920072c-9.936674 6.448241-23.220894 3.620889-29.669136-6.315785l-83.675415-128.940745a21.365294 21.365294 0 0 1-3.124778-15.40353 20.476628 20.476628 0 0 1 7.576533-13.013285l67.565047-53.341587-52.148271-78.64085v24.012023c0 0.935627-0.091516 1.848375-0.226381 2.746674-1.207766 10.700107-10.284674 19.01599-21.30629 19.01599h-106.069055a21.50618 21.50618 0 0 1-3.51372-0.292609c-12.978365-1.832721-22.962001-12.981978-22.962001-26.466087 0-14.761716 11.969285-26.733409 26.737022-26.73341 0.492499 0 0.982589 0.016858 1.471476 0.04335h88.669039v-55.10808c0-0.054187 0.008429-0.105965 0.008429-0.160152 0.008429-0.432291 0.030104-0.863378 0.066228-1.293261a21.113626 21.113626 0 0 1 0.301039-2.273442l0.003612-0.026491a21.38456 21.38456 0 0 1 9.217794-13.898339l83.420134-55.31399c2.145801-1.423309 4.455368-2.408307 6.822734-2.980279 10.89518-6.950373 54.880495-33.285208 83.284065-24.722473 32.619311 9.829504 67.024382 42.895556 67.024381 42.895556s30.833552 26.811679 0 45.577205c-30.831143 18.766731-39.767166-12.512358-44.68252-18.319989-4.91415-5.808836-28.65283-13.852581-35.746497-13.852581-4.372281 0-16.068223 5.765486-24.411802 11.445478l73.664084 111.085559 5.946109 7.531979c7.035868 8.911939 5.516227 21.842138-3.398121 28.876802L476.491925 663.331977l63.550399 97.924162c6.449446 9.93547 3.620889 23.218486-6.316989 29.665523z m192.563394-43.274865l-7.500672 6.351909c-9.038375 7.656007-24.009614 4.838288-33.442952-6.296518l-90.363283-106.679561a32.725277 32.725277 0 0 1-3.076611-4.295215l41.538475-31.712584c0.609302 0.61171 1.202949 1.253524 1.773718 1.926646l90.364487 106.680765c9.428521 11.133602 9.745213 26.366143 0.706838 34.024558z" p-id="9919" fill="#f39800"></path></svg>