<?xml version="1.0" standalone="no"?><!DOCTYPE svg PUBLIC "-//W3C//DTD SVG 1.1//EN" "http://www.w3.org/Graphics/SVG/1.1/DTD/svg11.dtd"><svg t="1510296168428" class="icon" style="" viewBox="0 0 1024 1024" version="1.1" xmlns="http://www.w3.org/2000/svg" p-id="1720" xmlns:xlink="http://www.w3.org/1999/xlink" width="200" height="200"><defs><style type="text/css"></style></defs><path d="M636.78749 461.698854" p-id="1721" fill="#f39800"></path><path d="M908.634687 224.443158" p-id="1722" fill="#f39800"></path><path d="M726.616564 491.960839c-82.145516-47.441223-223.556927 5.091797-182.551101 104.010002 41.000868 98.985137-2.738019 205.738115-62.172483 258.004647-59.407195 52.287603-40.272052 129.279348 7.467887 152.056093 87.835984 41.888338 160.224288 13.920637 192.573563-119.784906 19.151257-79.129854 79.773145-121.155774 110.413173-162.322733C891.065011 591.622734 726.616564 491.960839 726.616564 491.960839L726.616564 491.960839z" p-id="1723" fill="#f39800"></path><path d="M589.467736 423.73596c21.487683-1.771222 36.940321-26.391079 33.798231-64.058976-3.197867-37.664179-22.108664-54.015443-43.536851-52.205797-21.505035 1.809646-37.420001 21.082372-34.282869 58.768861C548.706088 403.92034 568.023436 425.569155 589.467736 423.73596L589.467736 423.73596z" p-id="1724" fill="#f39800"></path><path d="M900.398321 534.693265c-8.427247-3.963868-19.088043 0.920936-27.03437 18.022087-7.928975 17.08008-5.913575 30.739186 2.554575 34.681982 8.46815 3.947754 20.215973-3.360239 28.123876-20.456432C911.993687 549.901726 908.871428 538.634822 900.398321 534.693265L900.398321 534.693265z" p-id="1725" fill="#f39800"></path><path d="M696.321113 419.333315c14.220592-0.044621 25.731673-17.58455 25.69077-46.191824 0-28.612233-11.426797-42.14863-25.652346-42.14863-14.203239 0-25.713081 13.520284-25.713081 42.105248C670.646456 401.747526 682.156298 419.333315 696.321113 419.333315L696.321113 419.333315z" p-id="1726" fill="#f39800"></path><path d="M774.777927 443.492084c11.894082 4.086576 26.703428-7.883114 35.232313-32.79301 8.450797-24.846682 2.914025-39.872938-8.973859-43.937204-11.84946-4.064266-25.513524 4.424955-33.959364 29.250566C758.548133 420.898782 762.950777 439.450129 774.777927 443.492084L774.777927 443.492084z" p-id="1727" fill="#f39800"></path><path d="M870.710216 445.240995c-9.562614-5.292594-22.532567-0.317308-33.281366 19.233062-10.800858 19.617302-9.634504 35.930142-0.034706 41.205383 9.573769 5.314904 24.021186-2.431866 34.843115-22.033055C882.979862 464.076183 880.305057 450.55466 870.710216 445.240995L870.710216 445.240995z" p-id="1728" fill="#f39800"></path><path d="M307.181611 145.836366c0 0-192.067854 8.694975-168.852331 172.073749 7.180327 50.822534 40.272052 116.813864 19.151257 195.409501-35.610355 132.868892 14.501955 192.059177 111.655135 197.411266 52.815623 2.892954 106.531111-55.48671 79.433527-129.890413-27.145924-74.352885-14.36933-188.991456 69.006993-256.249539C501.004574 257.393582 402.024395 143.565633 307.181611 145.836366L307.181611 145.836366z" p-id="1729" fill="#f39800"></path><path d="M460.287547 151.590048c18.024566 11.871771 45.348976 2.176533 66.254101-29.389389 20.79853-31.527497 16.073619-56.069267-1.916241-67.985659-17.968789-11.866813-42.38785-6.574219-63.248354 24.94832C440.553733 110.734199 442.319997 139.723234 460.287547 151.590048L460.287547 151.590048z" p-id="1730" fill="#f39800"></path><path d="M149.288791 128.857924c1.210975-18.828991-5.768555-28.206922-15.085751-28.790718-9.333309-0.622221-17.485391 7.783955-18.706282 26.574522-1.171312 18.833949 5.607422 30.866853 14.963042 31.428339C139.733614 158.673695 148.062942 147.647251 149.288791 128.857924L149.288791 128.857924z" p-id="1731" fill="#f39800"></path><path d="M368.602967 96.586736c12.438215 6.778734 30.966011-3.098708 44.647428-28.245346 13.72108-25.109453 10.117902-42.488248-2.336426-49.312843-12.471681-6.801045-29.067123-0.381761-42.733666 24.686789C354.423278 68.861974 356.133765 89.78941 368.602967 96.586736L368.602967 96.586736z" p-id="1732" fill="#f39800"></path><path d="M288.1134 80.210683c12.309309 2.131911 25.108213-12.032904 29.596382-37.962895 4.442308-25.851903-3.465595-39.855586-15.813328-41.988736C289.48055-1.834435 277.409222 8.688778 272.899982 34.556795 268.475027 60.471911 275.75947 78.078772 288.1134 80.210683L288.1134 80.210683z" p-id="1733" fill="#f39800"></path><path d="M203.388519 104.836737c10.988019-0.081806 19.799506-13.818999 19.722658-36.17432-0.122709-22.370195-9.034594-32.914479-19.977992-32.871097-11.027683 0.038424-19.821817 10.660796-19.800746 32.993806C183.453909 91.155321 192.448839 104.85409 203.388519 104.836737L203.388519 104.836737z" p-id="1734" fill="#f39800"></path></svg>