<?xml version="1.0" standalone="no"?><!DOCTYPE svg PUBLIC "-//W3C//DTD SVG 1.1//EN" "http://www.w3.org/Graphics/SVG/1.1/DTD/svg11.dtd"><svg t="1510301619199" class="icon" style="" viewBox="0 0 1024 1024" version="1.1" xmlns="http://www.w3.org/2000/svg" p-id="29379" xmlns:xlink="http://www.w3.org/1999/xlink" width="200" height="200"><defs><style type="text/css"></style></defs><path d="M238.933333 436.906667l0 150.186667c0 146.2272-136.533333 300.373333-136.533333 300.373333l819.2 0c0 0-136.533333-154.2144-136.533333-300.373333l0-150.186667c0-287.3344-273.066667-300.373333-273.066667-300.373333S238.933333 149.572267 238.933333 436.906667L238.933333 436.906667z" p-id="29380" fill="#ff5078"></path><path d="M512 68.266667m-68.266667 0a1 1 0 1 0 136.533333 0 1 1 0 1 0-136.533333 0Z" p-id="29381" fill="#ff5078"></path><path d="M580.266667 955.733333 443.733333 955.733333c0 37.6832 30.583467 68.266667 68.266667 68.266667C549.751467 1024 580.266667 993.416533 580.266667 955.733333L580.266667 955.733333z" p-id="29382" fill="#ff5078"></path></svg>