<?xml version="1.0" standalone="no"?><!DOCTYPE svg PUBLIC "-//W3C//DTD SVG 1.1//EN" "http://www.w3.org/Graphics/SVG/1.1/DTD/svg11.dtd"><svg t="1510299975866" class="icon" style="" viewBox="0 0 1024 1024" version="1.1" xmlns="http://www.w3.org/2000/svg" p-id="14445" xmlns:xlink="http://www.w3.org/1999/xlink" width="200" height="200"><defs><style type="text/css"></style></defs><path d="M292.515147 405.948639c0-110.682845 48.469921-210.571856 126.267798-281.421484C241.691621 166.990269 110.572328 319.826166 110.572328 501.874385c0 214.886115 182.672436 389.084553 408.012647 389.084553 109.269659 0 208.503754-40.968064 281.742802-107.668185-31.940456 7.6574-65.367777 11.742439-99.799984 11.742439C475.189629 795.034215 292.515147 620.832707 292.515147 405.948639z" p-id="14446" fill="#0086ec"></path><path d="M531.692504 209.857589l30.254048 16.232706c4.497431 2.415003 17.009396 9.122775 17.009396 9.122775s1.286296 13.30912 1.810229 18.621103l3.211135 33.119305c0.994654 10.237155 8.245801 12.900821 16.112979 5.912663l25.436322-22.586414c3.935636-3.502777 14.296611-12.706393 14.296611-12.706393s13.796214 2.978844 19.018146 4.107551l33.813107 7.294127c10.465352 2.257413 15.33936-3.533476 10.842952-12.871145l-14.522762-30.197766c-2.094708-4.341888-8.17417-16.977673-8.17417-16.977673s7.024997-11.356652 9.942443-16.078187l17.685801-28.602432c5.466502-8.845459 1.235131-15.09172-9.407254-13.872962l-34.415834 3.927449c-4.878101 0.557702-19.35379 2.213411-19.35379 2.213411s-9.033747-9.855462-12.875239-14.043854l-22.880103-24.978904c-7.086395-7.716752-14.57802-5.785773-16.663518 4.303003l-6.736425 32.624025c-1.061169 5.131881-3.78828 18.34174-3.78828 18.34174s-13.068643 5.403057-17.896602 7.40362l-31.828916 13.165858C522.740622 197.397812 522.334369 204.837248 531.692504 209.857589z" p-id="14447" fill="#0086ec"></path><path d="M668.979264 488.808812c3.381004-5.463432 0.76441-9.322319-5.812379-8.572236l-21.274536 2.430352c-3.010567 0.338714-11.957333 1.364067-11.957333 1.364067s-5.582135-6.092765-7.958252-8.679683l-14.139022-15.439644c-4.383844-4.768607-9.010211-3.572362-10.296507 2.661619l-4.160763 20.161179c-0.662079 3.177366-2.344395 11.340279-2.344395 11.340279s-8.087189 3.332908-11.060917 4.572132l-19.673062 8.139378c-6.087649 2.509147-6.330172 7.109931-0.549515 10.215666l18.696828 10.029424c2.774183 1.496074 10.508331 5.63944 10.508331 5.63944s0.801249 8.223289 1.122567 11.507078l1.985214 20.468171c0.606821 6.331195 5.092995 7.976672 9.956769 3.657296l15.721053-13.959943c2.437515-2.160199 8.840342-7.852852 8.840342-7.852852s8.524141 1.847068 11.753695 2.538823l20.898982 4.50664c6.464225 1.399883 9.481955-2.179642 6.699586-7.955182l-8.972349-18.659989c-1.302669-2.685155-5.056156-10.491958-5.056156-10.491958s4.336772-7.021927 6.144954-9.936303L668.979264 488.808812z" p-id="14448" fill="#0086ec"></path><path d="M854.043167 355.576391c3.38612-5.464455 0.772596-9.325389-5.809309-8.571213l-21.266349 2.427282c-3.013637 0.340761-11.961426 1.366114-11.961426 1.366114s-5.586229-6.088672-7.958252-8.67866L792.912901 326.679247c-4.38282-4.768607-9.014304-3.572362-10.302647 2.659573l-4.161786 20.161179c-0.660032 3.172249-2.342348 11.337209-2.342348 11.337209s-8.080026 3.341095-11.05887 4.576225l-19.675108 8.139378c-6.083555 2.514263-6.332219 7.110955-0.550539 10.210549l18.698874 10.033517c2.777253 1.49198 10.504238 5.640464 10.504238 5.640464s0.804319 8.224312 1.12052 11.504008l1.9934 20.467147c0.611937 6.333242 5.090948 7.977695 9.954723 3.660366l15.721053-13.960966c2.436492-2.162246 8.840342-7.849782 8.840342-7.849782s8.524141 1.837858 11.754718 2.535753l20.892843 4.508687c6.471388 1.396813 9.477862-2.184759 6.700609-7.954159l-8.973372-18.664082c-1.295506-2.680039-5.052063-10.492982-5.052063-10.492982s4.340865-7.018857 6.14393-9.940396L854.043167 355.576391z" p-id="14449" fill="#0086ec"></path></svg>