<?xml version="1.0" standalone="no"?><!DOCTYPE svg PUBLIC "-//W3C//DTD SVG 1.1//EN" "http://www.w3.org/Graphics/SVG/1.1/DTD/svg11.dtd"><svg t="1510301470581" class="icon" style="" viewBox="0 0 1024 1024" version="1.1" xmlns="http://www.w3.org/2000/svg" p-id="27019" xmlns:xlink="http://www.w3.org/1999/xlink" width="200" height="200"><defs><style type="text/css"></style></defs><path d="M512.330752 272.38912c-132.508672 0-239.945728 107.45344-239.945728 239.962112 0 132.50048 107.436032 239.936512 239.945728 239.936512S752.275456 644.851712 752.275456 512.351232C752.275456 379.84256 644.839424 272.38912 512.330752 272.38912z" p-id="27020" fill="#f39800"></path><path d="M512.330752 241.514496c30.016512 0 54.341632-24.326144 54.341632-54.342656L566.672384 119.048192c0-30.016512-24.326144-54.342656-54.341632-54.342656S457.987072 89.032704 457.987072 119.048192l0 68.123648C457.987072 217.187328 482.31424 241.514496 512.330752 241.514496z" p-id="27021" fill="#f39800"></path><path d="M512.330752 783.178752c-30.016512 0-54.342656 24.327168-54.342656 54.342656l0 68.122624c0 30.016512 24.327168 54.342656 54.342656 54.342656s54.341632-24.327168 54.341632-54.342656L566.672384 837.522432C566.672384 807.50592 542.34624 783.178752 512.330752 783.178752z" p-id="27022" fill="#f39800"></path><path d="M905.624576 458.008576 837.501952 458.008576c-30.016512 0-54.334464 24.317952-54.334464 54.342656 0 30.007296 24.317952 54.334464 54.334464 54.334464l68.122624 0c30.016512 0 54.341632-24.327168 54.341632-54.334464C959.966208 482.326528 935.640064 458.008576 905.624576 458.008576z" p-id="27023" fill="#f39800"></path><path d="M241.492992 512.351232c0-30.024704-24.327168-54.342656-54.342656-54.342656l-68.123648 0c-29.989888 0-54.342656 24.317952-54.342656 54.342656 0 30.007296 24.352768 54.334464 54.342656 54.334464l68.123648 0C217.166848 566.685696 241.492992 542.358528 241.492992 512.351232z" p-id="27024" fill="#f39800"></path><path d="M780.704768 703.867904c-21.230592-21.2224-55.609344-21.2224-76.857344 0-21.2224 21.230592-21.2224 55.625728 0 76.848128l48.176128 48.15872c10.5984 10.614784 24.501248 15.932416 38.428672 15.932416 13.901824 0 27.795456-5.316608 38.402048-15.932416 21.238784-21.229568 21.238784-55.616512 0-76.838912L780.704768 703.867904z" p-id="27025" fill="#f39800"></path><path d="M243.930112 320.842752c10.624 10.624 24.552448 15.913984 38.454272 15.913984 13.910016 0 27.803648-5.289984 38.427648-15.888384 21.2224-21.2224 21.2224-55.626752 0.017408-76.873728l-48.167936-48.176128c-21.204992-21.195776-55.617536-21.195776-76.865536-0.043008-21.230592 21.248-21.230592 55.652352-0.017408 76.873728L243.930112 320.842752z" p-id="27026" fill="#f39800"></path><path d="M243.956736 703.867904l-48.15872 48.167936c-21.230592 21.2224-21.230592 55.609344 0 76.838912 10.589184 10.614784 24.517632 15.932416 38.436864 15.932416 13.88544 0 27.804672-5.316608 38.402048-15.932416l48.176128-48.15872c21.2224-21.2224 21.2224-55.616512 0-76.848128C299.590656 682.646528 265.152512 682.646528 243.956736 703.867904z" p-id="27027" fill="#f39800"></path><path d="M742.284288 336.756736c13.893632 0 27.839488-5.289984 38.436864-15.913984l48.167936-48.193536c21.203968-21.221376 21.203968-55.625728-0.034816-76.873728-21.230592-21.152768-55.625728-21.195776-76.873728 0.043008l-48.149504 48.176128c-21.204992 21.248-21.204992 55.652352 0.017408 76.873728C714.471424 331.466752 728.373248 336.756736 742.284288 336.756736z" p-id="27028" fill="#f39800"></path></svg>